<svg enable-background="new 0 0 437.1 78.4" viewBox="0 0 437.1 78.4" xmlns="http://www.w3.org/2000/svg"><path d="m329.1 77.6h66.5c12.7 0 22.2-5.6 22.2-16.3v-9.1c0-11.6-7.2-14.7-15.4-15.1v-.5c9.3-.9 12.4-6.6 12.4-12.1v-6.6c0-8.8-4.5-17.1-20.3-17.1h-65.4zm75.4-53.2c0 7.6-5.8 9.4-11.4 9.4h-53.6v-24.5h54.1c3.2 0 10.9 1.1 10.9 8.1zm3 34.4c0 6.8-3.5 10.3-13.1 10.3h-54.8v-26.8h53.3c9.4 0 14.7 1.5 14.7 11v5.5z" fill="#163072"/><path d="m222.6 49.7c0 19.4 6.6 28.7 27.3 28.7h44.1c20.8 0 27.3-9.3 27.3-28.7v-21c0-19.4-6.6-28.7-27.3-28.7h-44.1c-20.8 0-27.3 9.3-27.3 28.7zm88.4 3.9c0 13.3-8 16.3-18 16.3h-42c-10 0-18-3-18-16.3v-28.8c0-13.3 8-16.3 18-16.3h42c10 0 18 3 18 16.3z" fill="#cad400"/><g fill="#163072"><path d="m92.1 55.3c-3.5 0-6.4-2-7.8-4.1-1.2-1.6-1.5-4.9-1.5-6.8v-7.9c0-3.2 2.2-5.2 4-6.4 1.6-1.1 3.8-1.4 5.8-1.4h3.9v-27.8h-23.5v44.3c0 9.7-3.5 13.5-13.1 13.5h-23.3c-9.6 0-13.1-3.8-13.1-13.5v-44.3h-23.5v49.3c0 19.1 9.9 28.2 31.5 28.2h33.7c20.9 0 30.8-5.2 31.4-23.1z"/><path d="m217 28.8v-6.2c0-14.4-3.5-21.7-25.6-21.7h-61.3v76.7h10.4v-30.3h50.6c9.4 0 15.2 1.5 15.2 13.5v16.8h9.7v-19.6c0-7-2.5-12.5-13.1-14.4v-.2c7.9-.8 14.1-3.8 14.1-14.6zm-26.8 10h-49.8v-29.4h47.2c15.2 0 19 2.8 19 11.3v7c0 8-4.9 11.1-16.4 11.1z"/><path d="m428.7.2c4.6 0 8.4 3.8 8.4 8.4s-3.8 8.4-8.4 8.4-8.4-3.8-8.4-8.4c.1-4.6 3.8-8.4 8.4-8.4zm0 15.6c4 0 7.2-3.2 7.2-7.2s-3.2-7.2-7.2-7.2-7.2 3.2-7.2 7.2 3.3 7.2 7.2 7.2zm-3-12.1h3.7c2.2 0 3.3.9 3.3 2.8s-1.2 2.6-2.4 2.8l2.8 4.3h-1.5l-2.7-4.3h-2v4.3h-1.2zm1.1 4.4h1.8c1.4 0 2.8-.1 2.8-1.7 0-1.2-1.1-1.5-2.3-1.5h-2.3z"/></g><path d="m92.4 31.8s-6.5 0-6.5 6.4v7.3s0 6.5 6.5 6.5h25.5s6.5 0 6.5-6.5v-7.3s0-6.4-6.5-6.4z" fill="#cad400"/></svg>